<svg xmlns="http://www.w3.org/2000/svg" xmlns:xlink="http://www.w3.org/1999/xlink" version="1.1" viewBox="0 0 96 120" x="0px" y="0px"><path d="M84 95h-72c-1.104 0-2-0.896-2-2v-24c0-1.104 0.896-2 2-2h72c1.1 0 2 0.896 2 2v24c0 1.104-0.9 2-2 2zM14 91h68v-20h-68v20z" fill="#ffffff"/><path d="M72 55h-48c-1.104 0-2-0.896-2-2v-36c0-1.104 0.896-2 2-2h48c1.1 0 2 0.896 2 2v36c0 1.104-0.9 2-2 2zM26 51h44v-32h-44v32z" fill="#ffffff"/><path d="M56 71h-16c-1.104 0-2-0.896-2-2v-16c0-1.104 0.896-2 2-2h16c1.1 0 2 0.896 2 2v16c0 1.104-0.9 2-2 2zM42 67h12v-12h-12v12z" fill="#ffffff"/><path d="M42 27c0 2.209-1.791 4-4 4s-4-1.791-4-4c0-2.209 1.791-4 4-4s4 1.791 4 4z" fill="#ffffff"/><path d="M62 27c0 2.209-1.791 4-4 4s-4-1.791-4-4c0-2.209 1.791-4 4-4s4 1.791 4 4z" fill="#ffffff"/><path d="M64 47h-32c-1.104 0-2-0.896-2-2v-8c0-1.104 0.896-2 2-2h32c1.1 0 2 0.896 2 2v8c0 1.104-0.9 2-2 2zM34 43h28v-4h-28v4z" fill="#ffffff"/><path d="M24 93c-1.104 0-2-0.896-2-2v-12c0-1.104 0.896-2 2-2s2 0.896 2 2v12c0 1.104-0.896 2-2 2z" fill="#ffffff"/><path d="M72 93c-1.1 0-2-0.896-2-2v-12c0-1.104 0.9-2 2-2s2 0.896 2 2v12c0 1.104-0.9 2-2 2z" fill="#ffffff"/><path d="M48 17c-1.104 0-2-0.896-2-2v-12c0-1.104 0.896-2 2-2s2 0.896 2 2v12c0 1.104-0.896 2-2 2z" fill="#ffffff"/></svg>